<?xml version="1.0" standalone="no"?>
<!DOCTYPE svg PUBLIC "-//W3C//DTD SVG 20010904//EN"
 "http://www.w3.org/TR/2001/REC-SVG-20010904/DTD/svg10.dtd">
<svg version="1.0" xmlns="http://www.w3.org/2000/svg"
 width="192.000000pt" height="192.000000pt" viewBox="0 0 192.000000 192.000000"
 preserveAspectRatio="xMidYMid meet">

<g transform="translate(0.000000,192.000000) scale(0.100000,-0.100000)"
fill="#000000" stroke="none">
<path d="M251 1766 c-52 -29 -50 -7 -51 -804 0 -818 -2 -789 61 -811 48 -17
1086 -15 1118 2 13 6 32 23 43 37 17 23 18 44 16 240 l-3 214 -52 -80 -53 -80
0 -117 0 -117 -510 0 -510 0 0 710 0 710 385 0 385 0 0 -113 c0 -75 4 -117 12
-125 8 -8 50 -12 125 -12 l112 0 3 -122 3 -122 52 83 c51 80 53 85 53 154 l0
72 -147 147 -148 148 -435 0 c-342 -1 -440 -4 -459 -14z"/>
<path d="M436 1504 c-19 -18 -19 -20 -6 -45 10 -18 23 -19 185 -19 159 0 175
2 184 18 7 14 6 25 -5 40 -14 21 -23 22 -179 22 -135 0 -166 -3 -179 -16z"/>
<path d="M1518 1333 c-18 -21 -108 -161 -108 -169 0 -6 168 -114 179 -114 8 0
121 171 121 183 0 2 -28 22 -62 44 -35 22 -75 47 -89 56 -24 16 -27 16 -41 0z"/>
<path d="M430 1299 c-9 -16 -8 -25 6 -40 16 -18 34 -19 295 -19 239 0 280 2
293 16 9 8 16 21 16 28 0 33 -22 36 -312 36 -281 0 -288 0 -298 -21z"/>
<path d="M436 1114 c-19 -18 -19 -20 -6 -45 10 -18 23 -19 185 -19 159 0 175
2 184 18 7 14 6 25 -5 40 -14 21 -23 22 -179 22 -135 0 -166 -3 -179 -16z"/>
<path d="M1198 847 l-176 -272 -7 -97 c-4 -53 -4 -101 -1 -107 4 -7 41 6 99
35 l93 46 174 268 c96 148 175 276 175 285 0 16 -50 54 -58 45 -3 -3 -58 -87
-124 -188 -119 -182 -120 -183 -141 -165 l-21 18 121 184 121 184 -24 18 c-13
10 -31 19 -39 18 -9 0 -91 -116 -192 -272z"/>
<path d="M430 909 c-9 -16 -8 -25 6 -40 15 -17 32 -19 180 -19 155 0 164 1
178 22 11 15 12 26 5 40 -9 16 -25 18 -184 18 -166 0 -175 -1 -185 -21z"/>
<path d="M545 664 c-32 -32 -47 -76 -42 -120 4 -38 1 -45 -20 -59 -18 -12 -23
-24 -21 -43 4 -32 33 -33 61 0 27 32 20 6 -13 -46 -17 -27 -29 -53 -27 -60 2
-6 19 13 37 42 20 31 40 52 51 52 9 0 31 11 47 25 23 19 41 25 76 25 50 0 116
22 116 39 0 15 -11 13 -34 -4 -12 -9 -42 -15 -76 -15 -44 0 -63 -5 -90 -25
-46 -34 -51 -32 -35 15 20 57 36 154 29 174 -8 20 -38 21 -59 0z m45 -12 c0
-20 -22 -127 -32 -151 l-10 -26 -13 25 c-20 36 -18 90 5 128 18 29 50 44 50
24z m-94 -210 c-14 -14 -16 -14 -16 -1 0 8 6 21 12 27 9 9 14 10 17 1 2 -6 -4
-18 -13 -27z"/>
</g>
</svg>
